<svg width="1498" xmlns="http://www.w3.org/2000/svg" height="504" fill="none"><g style="fill: rgb(0, 0, 0);"><path d="M5.926,5.911C-1.853,14.081,-1.853,22.904,5.218,53.294C10.169,73.554,17.240,107.865,21.130,129.432C47.294,273.212,71.691,364.382,92.906,397.386C99.624,408.170,105.282,422.875,105.282,430.064C105.635,462.088,146.650,506.202,173.876,503.915C211.002,500.974,219.488,484.308,195.798,461.434C162.208,428.757,130.386,360.461,121.900,302.622L118.364,279.748L132.154,300.008C200.041,398.693,321.673,402.615,357.384,307.524C365.163,286.283,372.234,296.086,376.831,335.299C384.963,399.674,435.525,431.698,459.215,387.583C467.347,371.898,478.662,346.083,481.844,335.299C483.612,329.744,487.502,346.083,490.330,371.244C497.048,429.083,532.053,466.336,577.664,465.355C715.914,461.761,693.285,283.016,554.328,283.016C524.981,283.016,522.506,281.708,522.506,266.677C522.506,241.515,503.766,246.744,498.109,273.212C495.634,285.630,490.684,296.086,487.502,296.086C483.966,296.086,477.601,306.543,473.005,319.287C468.408,332.032,457.447,349.677,448.608,358.500C427.039,379.741,426.332,376.800,424.211,253.606C423.150,195.440,419.261,152.306,414.664,147.078C392.389,122.243,360.920,156.881,334.755,235.307C299.043,343.469,262.625,355.886,187.666,285.303C134.982,235.960,69.924,108.518,69.924,55.254C69.924,21.270,23.605,-14.349,5.926,5.911ZZM581.554,345.103C619.033,367.977,626.458,403.268,596.051,414.052C558.571,427.123,536.649,407.190,526.395,350.331L521.445,322.882L542.306,328.437C553.621,331.378,571.300,338.894,581.554,345.103ZZ" class="fills"/><path d="M678.435,163.416C678.435,204.590,683.385,247.397,692.932,283.016C700.710,313.405,709.550,359.481,712.732,384.969C720.157,446.076,735.361,462.741,761.526,438.560C771.426,429.410,772.841,373.532,763.648,364.382C747.383,348.370,748.090,318.634,765.415,303.602L782.387,288.897L799.359,309.484C828.706,345.756,921.344,434.312,939.730,443.461C949.631,448.363,968.370,461.107,981.806,471.891C1045.804,523.194,1021.761,457.513,954.934,398.040L926.294,372.225L945.388,362.748C957.056,356.540,991.353,351.638,1035.197,349.677L1105.913,346.736L1092.123,360.788C1084.698,368.630,1070.555,378.433,1061.008,383.008C1032.722,395.752,1027.065,409.804,1041.915,430.390L1054.644,448.363L1122.531,443.788C1236.384,436.599,1287.299,417.646,1267.499,389.217C1259.367,377.126,1254.063,376.800,1178.397,384.315C1126.067,389.217,1121.470,385.622,1146.928,360.134C1162.486,344.776,1168.497,343.795,1262.195,339.874C1417.417,333.992,1512.176,319.614,1496.265,305.236C1486.365,296.086,1322.304,283.669,1257.599,287.590L1190.065,291.185L1192.894,245.763C1197.137,177.141,1125.360,154.593,1034.490,195.440C971.906,223.543,1004.082,241.515,1079.041,220.602C1145.867,201.649,1169.911,216.354,1151.878,264.716L1141.271,292.819L1031.661,298.047C935.134,302.622,920.283,304.909,906.494,317.000L890.936,330.398L858.761,298.701C841.082,281.055,826.585,265.043,826.585,263.082C826.585,255.893,915.687,218.641,965.542,205.243C1019.286,190.539,1034.490,180.409,1024.943,165.704C1016.457,152.960,937.962,160.802,897.301,178.775C879.975,186.617,848.860,200.342,828.353,209.165C807.845,218.314,780.973,233.999,768.244,244.456C731.472,274.193,731.118,272.886,718.389,126.164C716.621,106.558,713.439,102.963,697.174,101.329L678.081,99.042L678.435,163.416ZZ" class="fills"/></g></svg>